<svg width="500" height="500" viewBox="0 0 500 500" fill="none" xmlns="http://www.w3.org/2000/svg">
<rect width="500" height="500" fill="#0f172a"/>
<rect x="127" y="285" width="80" height="25" fill="#162D6E"/>
<rect x="182" y="260" width="25" height="25" fill="#162D6E"/>
<rect x="182" y="235" width="80" height="25" fill="#2563EB"/>
<rect x="237" y="210" width="25" height="25" fill="#2563EB"/>
<rect x="237" y="185" width="80" height="25" fill="#7DD3FC"/>
<path d="M292 160H317V185H292V160Z" fill="#7DD3FC"/>
<path d="M292 135H372V160H292V135Z" fill="#2DD4BF"/>
<path d="M118.972 331.131C118.835 329.756 118.25 328.687 117.216 327.926C116.182 327.165 114.778 326.784 113.006 326.784C111.801 326.784 110.784 326.955 109.955 327.295C109.125 327.625 108.489 328.085 108.045 328.676C107.614 329.267 107.398 329.938 107.398 330.688C107.375 331.312 107.506 331.858 107.79 332.324C108.085 332.79 108.489 333.193 109 333.534C109.511 333.864 110.102 334.153 110.773 334.403C111.443 334.642 112.159 334.847 112.92 335.017L116.057 335.767C117.58 336.108 118.977 336.562 120.25 337.131C121.523 337.699 122.625 338.398 123.557 339.227C124.489 340.057 125.21 341.034 125.722 342.159C126.244 343.284 126.511 344.574 126.523 346.028C126.511 348.165 125.966 350.017 124.886 351.585C123.818 353.142 122.273 354.352 120.25 355.216C118.239 356.068 115.813 356.494 112.972 356.494C110.153 356.494 107.699 356.062 105.608 355.199C103.528 354.335 101.903 353.057 100.733 351.364C99.5739 349.659 98.9659 347.551 98.9091 345.04H106.051C106.131 346.21 106.466 347.187 107.057 347.972C107.659 348.744 108.46 349.33 109.46 349.727C110.472 350.114 111.614 350.307 112.886 350.307C114.136 350.307 115.222 350.125 116.142 349.761C117.074 349.398 117.795 348.892 118.307 348.244C118.818 347.597 119.074 346.852 119.074 346.011C119.074 345.227 118.841 344.568 118.375 344.034C117.92 343.5 117.25 343.045 116.364 342.67C115.489 342.295 114.415 341.955 113.142 341.648L109.341 340.693C106.398 339.977 104.074 338.858 102.369 337.335C100.665 335.812 99.8182 333.761 99.8295 331.182C99.8182 329.068 100.381 327.222 101.517 325.642C102.665 324.062 104.239 322.83 106.239 321.943C108.239 321.057 110.511 320.614 113.057 320.614C115.648 320.614 117.909 321.057 119.841 321.943C121.784 322.83 123.295 324.062 124.375 325.642C125.455 327.222 126.011 329.051 126.045 331.131H118.972ZM145.277 329.818V335.273H129.51V329.818H145.277ZM133.089 323.545H140.351V347.955C140.351 348.625 140.453 349.148 140.658 349.523C140.862 349.886 141.146 350.142 141.51 350.29C141.885 350.437 142.317 350.511 142.805 350.511C143.146 350.511 143.487 350.483 143.828 350.426C144.169 350.358 144.43 350.307 144.612 350.273L145.754 355.676C145.391 355.79 144.879 355.92 144.22 356.068C143.561 356.227 142.76 356.324 141.817 356.358C140.067 356.426 138.533 356.193 137.214 355.659C135.908 355.125 134.891 354.295 134.163 353.17C133.436 352.045 133.078 350.625 133.089 348.909V323.545ZM161.658 356.511C158.964 356.511 156.646 355.966 154.703 354.875C152.771 353.773 151.283 352.216 150.237 350.205C149.192 348.182 148.669 345.79 148.669 343.028C148.669 340.335 149.192 337.972 150.237 335.938C151.283 333.903 152.754 332.318 154.652 331.182C156.561 330.045 158.8 329.477 161.368 329.477C163.095 329.477 164.703 329.756 166.192 330.312C167.692 330.858 168.999 331.682 170.112 332.784C171.237 333.886 172.112 335.273 172.737 336.943C173.362 338.602 173.675 340.545 173.675 342.773V344.767H151.567V340.267H166.839C166.839 339.222 166.612 338.295 166.158 337.489C165.703 336.682 165.072 336.051 164.266 335.597C163.47 335.131 162.544 334.898 161.487 334.898C160.385 334.898 159.408 335.153 158.555 335.665C157.714 336.165 157.055 336.841 156.578 337.693C156.101 338.534 155.857 339.472 155.845 340.506V344.784C155.845 346.08 156.084 347.199 156.561 348.142C157.05 349.085 157.737 349.812 158.624 350.324C159.51 350.835 160.561 351.091 161.777 351.091C162.584 351.091 163.322 350.977 163.993 350.75C164.663 350.523 165.237 350.182 165.714 349.727C166.192 349.273 166.555 348.716 166.805 348.057L173.521 348.5C173.18 350.114 172.482 351.523 171.425 352.727C170.379 353.92 169.027 354.852 167.368 355.523C165.72 356.182 163.817 356.511 161.658 356.511ZM185.879 356.494C184.209 356.494 182.72 356.205 181.413 355.625C180.107 355.034 179.072 354.165 178.311 353.017C177.561 351.858 177.186 350.415 177.186 348.688C177.186 347.233 177.453 346.011 177.987 345.023C178.521 344.034 179.249 343.239 180.169 342.636C181.089 342.034 182.135 341.58 183.305 341.273C184.487 340.966 185.726 340.75 187.021 340.625C188.544 340.466 189.771 340.318 190.703 340.182C191.635 340.034 192.311 339.818 192.732 339.534C193.152 339.25 193.362 338.83 193.362 338.273V338.17C193.362 337.091 193.021 336.256 192.339 335.665C191.669 335.074 190.714 334.778 189.476 334.778C188.169 334.778 187.129 335.068 186.357 335.648C185.584 336.216 185.072 336.932 184.822 337.795L178.107 337.25C178.447 335.659 179.118 334.284 180.118 333.125C181.118 331.955 182.408 331.057 183.987 330.432C185.578 329.795 187.419 329.477 189.51 329.477C190.964 329.477 192.357 329.648 193.686 329.989C195.027 330.33 196.214 330.858 197.249 331.574C198.294 332.29 199.118 333.21 199.72 334.335C200.322 335.449 200.624 336.784 200.624 338.341V356H193.737V352.369H193.533C193.112 353.188 192.55 353.909 191.845 354.534C191.141 355.148 190.294 355.631 189.305 355.983C188.317 356.324 187.175 356.494 185.879 356.494ZM187.959 351.483C189.027 351.483 189.97 351.273 190.788 350.852C191.607 350.42 192.249 349.841 192.714 349.114C193.18 348.386 193.413 347.562 193.413 346.642V343.864C193.186 344.011 192.874 344.148 192.476 344.273C192.089 344.386 191.652 344.494 191.163 344.597C190.675 344.687 190.186 344.773 189.697 344.852C189.209 344.92 188.766 344.983 188.368 345.04C187.516 345.165 186.771 345.364 186.135 345.636C185.499 345.909 185.004 346.278 184.652 346.744C184.3 347.199 184.124 347.767 184.124 348.449C184.124 349.438 184.482 350.193 185.197 350.716C185.925 351.227 186.845 351.483 187.959 351.483ZM215.905 356.426C213.916 356.426 212.115 355.915 210.501 354.892C208.899 353.858 207.626 352.341 206.683 350.341C205.751 348.33 205.286 345.864 205.286 342.943C205.286 339.943 205.768 337.449 206.734 335.46C207.7 333.46 208.984 331.966 210.587 330.977C212.2 329.977 213.967 329.477 215.888 329.477C217.354 329.477 218.575 329.727 219.553 330.227C220.541 330.716 221.337 331.33 221.939 332.068C222.553 332.795 223.018 333.511 223.337 334.216H223.558V321.091H230.803V356H223.643V351.807H223.337C222.996 352.534 222.513 353.256 221.888 353.972C221.274 354.676 220.473 355.261 219.484 355.727C218.507 356.193 217.314 356.426 215.905 356.426ZM218.206 350.648C219.376 350.648 220.365 350.33 221.172 349.693C221.99 349.045 222.615 348.142 223.047 346.983C223.49 345.824 223.712 344.466 223.712 342.909C223.712 341.352 223.496 340 223.064 338.852C222.632 337.705 222.007 336.818 221.189 336.193C220.371 335.568 219.376 335.256 218.206 335.256C217.013 335.256 216.007 335.58 215.189 336.227C214.371 336.875 213.751 337.773 213.331 338.92C212.911 340.068 212.7 341.398 212.7 342.909C212.7 344.432 212.911 345.778 213.331 346.949C213.763 348.108 214.382 349.017 215.189 349.676C216.007 350.324 217.013 350.648 218.206 350.648ZM241.256 365.818C240.335 365.818 239.472 365.744 238.665 365.597C237.869 365.46 237.21 365.284 236.688 365.068L238.324 359.648C239.176 359.909 239.943 360.051 240.625 360.074C241.318 360.097 241.915 359.938 242.415 359.597C242.926 359.256 243.341 358.676 243.659 357.858L244.085 356.75L234.693 329.818H242.33L247.75 349.045H248.023L253.494 329.818H261.182L251.006 358.83C250.517 360.239 249.852 361.466 249.011 362.511C248.182 363.568 247.131 364.381 245.858 364.949C244.585 365.528 243.051 365.818 241.256 365.818Z" fill="#ffffff"/>
<path d="M283.972 331.131C283.835 329.756 283.25 328.687 282.216 327.926C281.182 327.165 279.778 326.784 278.006 326.784C276.801 326.784 275.784 326.955 274.955 327.295C274.125 327.625 273.489 328.085 273.045 328.676C272.614 329.267 272.398 329.938 272.398 330.688C272.375 331.312 272.506 331.858 272.79 332.324C273.085 332.79 273.489 333.193 274 333.534C274.511 333.864 275.102 334.153 275.773 334.403C276.443 334.642 277.159 334.847 277.92 335.017L281.057 335.767C282.58 336.108 283.977 336.562 285.25 337.131C286.523 337.699 287.625 338.398 288.557 339.227C289.489 340.057 290.21 341.034 290.722 342.159C291.244 343.284 291.511 344.574 291.523 346.028C291.511 348.165 290.966 350.017 289.886 351.585C288.818 353.142 287.273 354.352 285.25 355.216C283.239 356.068 280.813 356.494 277.972 356.494C275.153 356.494 272.699 356.062 270.608 355.199C268.528 354.335 266.903 353.057 265.733 351.364C264.574 349.659 263.966 347.551 263.909 345.04H271.051C271.131 346.21 271.466 347.187 272.057 347.972C272.659 348.744 273.46 349.33 274.46 349.727C275.472 350.114 276.614 350.307 277.886 350.307C279.136 350.307 280.222 350.125 281.142 349.761C282.074 349.398 282.795 348.892 283.307 348.244C283.818 347.597 284.074 346.852 284.074 346.011C284.074 345.227 283.841 344.568 283.375 344.034C282.92 343.5 282.25 343.045 281.364 342.67C280.489 342.295 279.415 341.955 278.142 341.648L274.341 340.693C271.398 339.977 269.074 338.858 267.369 337.335C265.665 335.812 264.818 333.761 264.83 331.182C264.818 329.068 265.381 327.222 266.517 325.642C267.665 324.062 269.239 322.83 271.239 321.943C273.239 321.057 275.511 320.614 278.057 320.614C280.648 320.614 282.909 321.057 284.841 321.943C286.784 322.83 288.295 324.062 289.375 325.642C290.455 327.222 291.011 329.051 291.045 331.131H283.972ZM310.277 329.818V335.273H294.51V329.818H310.277ZM298.089 323.545H305.351V347.955C305.351 348.625 305.453 349.148 305.658 349.523C305.862 349.886 306.146 350.142 306.51 350.29C306.885 350.437 307.317 350.511 307.805 350.511C308.146 350.511 308.487 350.483 308.828 350.426C309.169 350.358 309.43 350.307 309.612 350.273L310.754 355.676C310.391 355.79 309.879 355.92 309.22 356.068C308.561 356.227 307.76 356.324 306.817 356.358C305.067 356.426 303.533 356.193 302.214 355.659C300.908 355.125 299.891 354.295 299.163 353.17C298.436 352.045 298.078 350.625 298.089 348.909V323.545ZM326.658 356.511C323.964 356.511 321.646 355.966 319.703 354.875C317.771 353.773 316.283 352.216 315.237 350.205C314.192 348.182 313.669 345.79 313.669 343.028C313.669 340.335 314.192 337.972 315.237 335.938C316.283 333.903 317.754 332.318 319.652 331.182C321.561 330.045 323.8 329.477 326.368 329.477C328.095 329.477 329.703 329.756 331.192 330.312C332.692 330.858 333.999 331.682 335.112 332.784C336.237 333.886 337.112 335.273 337.737 336.943C338.362 338.602 338.675 340.545 338.675 342.773V344.767H316.567V340.267H331.839C331.839 339.222 331.612 338.295 331.158 337.489C330.703 336.682 330.072 336.051 329.266 335.597C328.47 335.131 327.544 334.898 326.487 334.898C325.385 334.898 324.408 335.153 323.555 335.665C322.714 336.165 322.055 336.841 321.578 337.693C321.101 338.534 320.857 339.472 320.845 340.506V344.784C320.845 346.08 321.084 347.199 321.561 348.142C322.05 349.085 322.737 349.812 323.624 350.324C324.51 350.835 325.561 351.091 326.777 351.091C327.584 351.091 328.322 350.977 328.993 350.75C329.663 350.523 330.237 350.182 330.714 349.727C331.192 349.273 331.555 348.716 331.805 348.057L338.521 348.5C338.18 350.114 337.482 351.523 336.425 352.727C335.379 353.92 334.027 354.852 332.368 355.523C330.72 356.182 328.817 356.511 326.658 356.511ZM343.413 365.818V329.818H350.572V334.216H350.896C351.214 333.511 351.675 332.795 352.277 332.068C352.891 331.33 353.686 330.716 354.663 330.227C355.652 329.727 356.879 329.477 358.345 329.477C360.254 329.477 362.016 329.977 363.629 330.977C365.243 331.966 366.533 333.46 367.499 335.46C368.464 337.449 368.947 339.943 368.947 342.943C368.947 345.864 368.476 348.33 367.533 350.341C366.601 352.341 365.328 353.858 363.714 354.892C362.112 355.915 360.317 356.426 358.328 356.426C356.919 356.426 355.72 356.193 354.732 355.727C353.754 355.261 352.953 354.676 352.328 353.972C351.703 353.256 351.226 352.534 350.896 351.807H350.675V365.818H343.413ZM350.521 342.909C350.521 344.466 350.737 345.824 351.169 346.983C351.601 348.142 352.226 349.045 353.044 349.693C353.862 350.33 354.857 350.648 356.027 350.648C357.209 350.648 358.209 350.324 359.027 349.676C359.845 349.017 360.464 348.108 360.885 346.949C361.317 345.778 361.533 344.432 361.533 342.909C361.533 341.398 361.322 340.068 360.902 338.92C360.482 337.773 359.862 336.875 359.044 336.227C358.226 335.58 357.22 335.256 356.027 335.256C354.845 335.256 353.845 335.568 353.027 336.193C352.22 336.818 351.601 337.705 351.169 338.852C350.737 340 350.521 341.352 350.521 342.909ZM395.572 337.284L388.925 337.693C388.811 337.125 388.567 336.614 388.192 336.159C387.817 335.693 387.322 335.324 386.709 335.051C386.107 334.767 385.385 334.625 384.544 334.625C383.419 334.625 382.47 334.864 381.697 335.341C380.925 335.807 380.538 336.432 380.538 337.216C380.538 337.841 380.788 338.369 381.288 338.801C381.788 339.233 382.646 339.58 383.862 339.841L388.601 340.795C391.146 341.318 393.044 342.159 394.294 343.318C395.544 344.477 396.169 346 396.169 347.886C396.169 349.602 395.663 351.108 394.652 352.403C393.652 353.699 392.277 354.71 390.527 355.438C388.788 356.153 386.783 356.511 384.51 356.511C381.044 356.511 378.283 355.79 376.226 354.347C374.18 352.892 372.982 350.915 372.629 348.415L379.771 348.04C379.987 349.097 380.51 349.903 381.339 350.46C382.169 351.006 383.232 351.278 384.527 351.278C385.8 351.278 386.822 351.034 387.595 350.545C388.379 350.045 388.777 349.403 388.788 348.619C388.777 347.96 388.499 347.42 387.953 347C387.408 346.568 386.567 346.239 385.43 346.011L380.896 345.108C378.339 344.597 376.436 343.71 375.186 342.449C373.947 341.187 373.328 339.58 373.328 337.625C373.328 335.943 373.783 334.494 374.692 333.278C375.612 332.062 376.902 331.125 378.561 330.466C380.232 329.807 382.186 329.477 384.425 329.477C387.732 329.477 390.334 330.176 392.232 331.574C394.141 332.972 395.254 334.875 395.572 337.284Z" fill="#2DD4BF"/>
<path d="M187.227 367.091H192.273L204.136 396.068H204.545L216.409 367.091H221.455V402H217.5V375.477H217.159L206.25 402H202.432L191.523 375.477H191.182V402H187.227V367.091ZM245.885 391.295V375.818H249.908V402H245.885V397.568H245.612C244.999 398.898 244.044 400.028 242.749 400.96C241.453 401.881 239.817 402.341 237.839 402.341C236.203 402.341 234.749 401.983 233.476 401.267C232.203 400.54 231.203 399.449 230.476 397.994C229.749 396.528 229.385 394.682 229.385 392.455V375.818H233.408V392.182C233.408 394.091 233.942 395.614 235.01 396.75C236.089 397.886 237.464 398.455 239.135 398.455C240.135 398.455 241.152 398.199 242.186 397.688C243.232 397.176 244.107 396.392 244.811 395.335C245.527 394.278 245.885 392.932 245.885 391.295ZM275.821 381.682L272.207 382.705C271.98 382.102 271.645 381.517 271.202 380.949C270.77 380.369 270.179 379.892 269.429 379.517C268.679 379.142 267.719 378.955 266.548 378.955C264.946 378.955 263.611 379.324 262.543 380.062C261.486 380.79 260.957 381.716 260.957 382.841C260.957 383.841 261.321 384.631 262.048 385.21C262.776 385.79 263.912 386.273 265.457 386.659L269.344 387.614C271.685 388.182 273.429 389.051 274.577 390.222C275.724 391.381 276.298 392.875 276.298 394.705C276.298 396.205 275.866 397.545 275.003 398.727C274.151 399.909 272.957 400.841 271.423 401.523C269.889 402.205 268.105 402.545 266.071 402.545C263.401 402.545 261.19 401.966 259.44 400.807C257.69 399.648 256.582 397.955 256.116 395.727L259.935 394.773C260.298 396.182 260.986 397.239 261.997 397.943C263.02 398.648 264.355 399 266.003 399C267.878 399 269.366 398.602 270.469 397.807C271.582 397 272.139 396.034 272.139 394.909C272.139 394 271.821 393.239 271.185 392.625C270.548 392 269.571 391.534 268.253 391.227L263.889 390.205C261.491 389.636 259.73 388.756 258.605 387.562C257.491 386.358 256.935 384.852 256.935 383.045C256.935 381.568 257.349 380.261 258.179 379.125C259.02 377.989 260.162 377.097 261.605 376.449C263.06 375.801 264.707 375.477 266.548 375.477C269.139 375.477 271.173 376.045 272.651 377.182C274.139 378.318 275.196 379.818 275.821 381.682ZM282.354 402V375.818H286.376V402H282.354ZM284.399 371.455C283.615 371.455 282.939 371.188 282.371 370.653C281.814 370.119 281.536 369.477 281.536 368.727C281.536 367.977 281.814 367.335 282.371 366.801C282.939 366.267 283.615 366 284.399 366C285.183 366 285.854 366.267 286.411 366.801C286.979 367.335 287.263 367.977 287.263 368.727C287.263 369.477 286.979 370.119 286.411 370.653C285.854 371.188 285.183 371.455 284.399 371.455ZM304.381 402.545C301.926 402.545 299.813 401.966 298.04 400.807C296.267 399.648 294.903 398.051 293.949 396.017C292.994 393.983 292.517 391.659 292.517 389.045C292.517 386.386 293.006 384.04 293.983 382.006C294.972 379.96 296.347 378.364 298.108 377.216C299.881 376.057 301.949 375.477 304.312 375.477C306.153 375.477 307.812 375.818 309.29 376.5C310.767 377.182 311.977 378.136 312.92 379.364C313.864 380.591 314.449 382.023 314.676 383.659H310.653C310.347 382.466 309.665 381.409 308.608 380.489C307.563 379.557 306.153 379.091 304.381 379.091C302.813 379.091 301.438 379.5 300.256 380.318C299.085 381.125 298.17 382.267 297.511 383.744C296.864 385.21 296.54 386.932 296.54 388.909C296.54 390.932 296.858 392.693 297.494 394.193C298.142 395.693 299.051 396.858 300.222 397.688C301.403 398.517 302.79 398.932 304.381 398.932C305.426 398.932 306.375 398.75 307.227 398.386C308.08 398.023 308.801 397.5 309.392 396.818C309.983 396.136 310.403 395.318 310.653 394.364H314.676C314.449 395.909 313.886 397.301 312.989 398.54C312.102 399.767 310.926 400.744 309.46 401.472C308.006 402.188 306.313 402.545 304.381 402.545Z" fill="#ffffff"/>
</svg>
